<svg xmlns="http://www.w3.org/2000/svg" width="600" height="340" viewBox="0 0 600 340">
  <rect width="600" height="340" rx="8" fill="#0d1117"/>
  <rect x="0" y="0" width="600" height="28" rx="8" fill="#161b22"/>
  <rect x="0" y="14" width="600" height="14" fill="#161b22"/>
  <circle cx="16" cy="14" r="5" fill="#ff5f58"/>
  <circle cx="32" cy="14" r="5" fill="#ffbd2e"/>
  <circle cx="48" cy="14" r="5" fill="#18c132"/>
  <text x="16" y="42" fill="#8b949e" font="13px monospace">$ prism "hello world" --wave --preview --speed 1.5</text>

  <!-- Wave rows with gradient colors -->
  <g font="bold 20px monospace" text-anchor="middle">
    <text x="300" y="90" fill="#ff0066">h</text>
    <text x="316" y="94" fill="#ff1a66">e</text>
    <text x="332" y="98" fill="#ff3399">l</text>
    <text x="348" y="100" fill="#ff4daa">l</text>
    <text x="364" y="98" fill="#ff66bb">o</text>
    <text x="386" y="94" fill="#ff80cc">h</text>
    <text x="402" y="90" fill="#ff99dd">o</text>
    <text x="418" y="94" fill="#ffb3ee">r</text>
    <text x="434" y="98" fill="#ffccff">l</text>
    <text x="450" y="100" fill="#e6ccff">d</text>

    <text x="300" y="140" fill="#cc33ff">h</text>
    <text x="316" y="144" fill="#b366ff">e</text>
    <text x="332" y="148" fill="#9999ff">l</text>
    <text x="348" y="150" fill="#80b3ff">l</text>
    <text x="364" y="148" fill="#66ccff">o</text>
    <text x="386" y="144" fill="#4ddbff">h</text>
    <text x="402" y="140" fill="#33e6ff">o</text>
    <text x="418" y="144" fill="#1af0ff">r</text>
    <text x="434" y="148" fill="#00faff">l</text>
    <text x="450" y="150" fill="#00ffff">d</text>

    <text x="300" y="190" fill="#00ffcc">h</text>
    <text x="316" y="188" fill="#00ff99">e</text>
    <text x="332" y="184" fill="#00ff66">l</text>
    <text x="348" y="182" fill="#00ff33">l</text>
    <text x="364" y="184" fill="#00ff00">o</text>
    <text x="386" y="188" fill="#33ff00">h</text>
    <text x="402" y="190" fill="#66ff00">o</text>
    <text x="418" y="188" fill="#99ff00">r</text>
    <text x="434" y="184" fill="#ccff00">l</text>
    <text x="450" y="182" fill="#ffff00">d</text>

    <text x="300" y="230" fill="#ffcc00">h</text>
    <text x="316" y="226" fill="#ffb300">e</text>
    <text x="332" y="222" fill="#ff9900">l</text>
    <text x="348" y="220" fill="#ff8000">l</text>
    <text x="364" y="222" fill="#ff6600">o</text>
    <text x="386" y="226" fill="#ff4d00">h</text>
    <text x="402" y="230" fill="#ff3300">o</text>
    <text x="418" y="226" fill="#ff1a00">r</text>
    <text x="434" y="222" fill="#ff0000">l</text>
    <text x="450" y="220" fill="#ff0066">d</text>
  </g>

  <!-- Bottom caption -->
  <text x="300" y="280" fill="#8b949e" font="12px monospace" text-anchor="middle">5 visual modes · any text · fullscreen · any key to exit</text>

  <!-- Small mode indicators -->
  <g font="11px monospace" fill="#484f58">
    <text x="16" y="310">modes: --wave  --drift  --aurora  --fire  --rain</text>
    <text x="16" y="328">--big banner · --from/--to colors · --speed · pipe from stdin</text>
  </g>
</svg>
